<svg xmlns="http://www.w3.org/2000/svg" width="22" height="37" fill="none" viewBox="0 0 22 37"><path fill="#F59E0B" d="M13.3802 34.1826C16.5337 30.9117 18.549 24.3861 17.5803 17.7653L19.9359 15.3221C21.638 13.5565 21.3122 11.29 20.6077 9.26637L19.6649 6.5577L15.4162 10.9647L10.9501 11.0742L6.48413 11.1839L2.13208 6.98809L1.25473 9.74125C0.599391 11.7984 0.328241 14.0795 2.07181 15.7605L4.48477 18.0868C3.67583 24.7511 5.84668 31.174 9.07702 34.2883L11.2544 36.3876L13.3802 34.1826ZM12.6179 25.9279C11.8056 26.7705 10.4725 26.8032 9.64041 26.001C8.80832 25.1988 8.79238 23.8655 9.6047 23.0229C10.417 22.1803 11.7499 22.1476 12.582 22.9499C13.4141 23.7521 13.4302 25.0853 12.6179 25.9279ZM13.1384 7.29682L13.1205 5.80783C13.0947 3.65708 10.8248 0.651111 10.8248 0.651111C10.8248 0.651111 8.62582 3.52909 8.65443 5.91744L8.67243 7.40652L13.1384 7.29682Z"/></svg>